<?xml version="1.0" ?><svg enable-background="new 0 0 512 512" id="Layer_1" version="1.1" viewBox="0 0 512 512" xml:space="preserve" xmlns="http://www.w3.org/2000/svg" xmlns:xlink="http://www.w3.org/1999/xlink"><g><g><linearGradient gradientUnits="userSpaceOnUse" id="SVGID_1_" x1="-0.0000027" x2="512" y1="256" y2="256"><stop offset="0" style="stop-color:#95A5A6"/><stop offset="1" style="stop-color:#7F8C8D"/></linearGradient><circle cx="256" cy="256" fill="url(#SVGID_1_)" r="256"/><linearGradient gradientUnits="userSpaceOnUse" id="SVGID_2_" x1="42.6666641" x2="469.3333435" y1="256.0005188" y2="256.0005188"><stop offset="0" style="stop-color:#7F8C8D"/><stop offset="1" style="stop-color:#95A5A6"/></linearGradient><path d="M256,469.3338623c-117.631012,0-213.3333435-95.7018738-213.3333435-213.3333435    c0-117.6309204,95.7023239-213.333313,213.3333435-213.333313c117.6362,0,213.3333435,95.7024002,213.3333435,213.333313    C469.3333435,373.6319885,373.6362,469.3338623,256,469.3338623z" fill="url(#SVGID_2_)"/></g><g><polygon opacity="0.3" points="363.3780518,228.7898712 306.2186584,228.7898712 383.9988403,151.0058594 376.992981,144     299.2137756,221.7839966 299.2137756,164.6255951 289.3049927,164.6255951 289.3049927,238.6986694 363.3780518,238.6986694   "/><path d="M311.5663147,302.9263916l53.8298645,53.8304138    c9.3354797-11.6330566,16.4133301-22.5829468,16.4133301-22.5829468l-52.4613342-52.4607849    C329.348175,281.7130737,320.3881836,293.9386597,311.5663147,302.9263916z" opacity="0.3"/><path d="M246.2911224,198.6549377l-52.4624023-52.4629364c0,0-10.9503937,7.0794678-22.5845337,16.4149323    l53.8314667,53.8314667C234.0623169,207.6154633,246.2911224,198.6549377,246.2911224,198.6549377z" opacity="0.3"/><path d="M298.8527222,312.2080078c-35.0213318,5.6560059-88.7130585-48.0373535-83.0570679-83.0576019    c0.2410736-1.4965363,1.2496796-3.3210754,2.683197-5.2976074l-54.848526-54.848526    c-10.4645386,9.2298584-19.6282654,19.461853-19.6287994,27.0154572C144.0015259,262.4805298,265.5220642,384,331.9828491,384    c7.5536194,0,17.7866821-9.1637268,27.0165405-19.6287842l-54.8479919-54.8480225    C302.1743164,310.9573364,300.3492432,311.9658813,298.8527222,312.2080078z" opacity="0.3"/></g><g><polygon fill="#FFFFFF" points="355.3780518,220.7898712 298.2186584,220.7898712 375.9988403,143.0058594 368.992981,136     291.2137756,213.7839966 291.2137756,156.6255951 281.3049927,156.6255951 281.3049927,230.6986694 355.3780518,230.6986694   "/><path d="M303.5663147,294.9263916l53.8298645,53.8304138    c9.3354797-11.6330566,16.4133301-22.5829468,16.4133301-22.5829468l-52.4613342-52.4607849    C321.348175,273.7130737,312.3881836,285.9386597,303.5663147,294.9263916z" fill="#FFFFFF"/><path d="M238.2911224,190.6549377l-52.4624023-52.4629364c0,0-10.9503937,7.0794678-22.5845337,16.4149323    l53.8314667,53.8314667C226.0623169,199.6154633,238.2911224,190.6549377,238.2911224,190.6549377z" fill="#FFFFFF"/><path d="M290.8527222,304.2080078c-35.0213318,5.6560059-88.7130585-48.0373535-83.0570679-83.0576019    c0.2410736-1.4965363,1.2496796-3.3210754,2.683197-5.2976074l-54.848526-54.848526    c-10.4645386,9.2298584-19.6282654,19.461853-19.6287994,27.0154572C136.0015259,254.4805298,257.5220642,376,323.9828491,376    c7.5536194,0,17.7866821-9.1637268,27.0165405-19.6287842l-54.8479919-54.8480225    C294.1743164,302.9573364,292.3492432,303.9658813,290.8527222,304.2080078z" fill="#FFFFFF"/></g></g></svg>